<svg version="1.1" viewBox="0.0 0.0 1246.0 436.0" fill="none" stroke="none" stroke-linecap="square" stroke-miterlimit="10" xmlns:xlink="http://www.w3.org/1999/xlink" xmlns="http://www.w3.org/2000/svg"><clipPath id="p.0"><path d="m0 0l1246.0 0l0 436.0l-1246.0 0l0 -436.0z" clip-rule="nonzero"/></clipPath><g clip-path="url(#p.0)"><path fill="#000000" fill-opacity="0.0" d="m0 0l1246.0 0l0 436.0l-1246.0 0z" fill-rule="evenodd"/><path fill="#000000" fill-opacity="0.0" d="m373.65143 16.023485l887.40155 0l0 333.3543l-887.40155 0z" fill-rule="evenodd"/><path fill="#ffffff" d="m428.0108 274.4635l-38.546875 -213.84377l40.390625 0l22.96875 145.20312l21.375 -145.20312l42.765625 0l-39.0625 213.84377l-49.890625 0zm110.61395 0l0 -213.84377l47.25 0l0 213.84377l-47.25 0zm135.94836 3.171875q-20.0625 0 -33.53125 -7.125q-13.453125 -7.140625 -20.328125 -22.04689q-6.859375 -14.921875 -7.640625 -38.6875l40.390625 -6.0625q0.265625 13.71875 2.5 22.171875q2.25 8.453125 6.34375 12.15625q4.09375 3.6875 9.890625 3.6875q7.390625 0 9.640625 -5.015625q2.25 -5.015625 2.25 -10.5625q0 -13.203125 -6.34375 -22.3125q-6.328125 -9.109375 -17.15625 -18.34375l-18.484375 -16.109375q-12.140625 -10.296875 -20.453125 -23.359375q-8.3125 -13.0625 -8.3125 -32.34375q0 -27.1875 16.09375 -41.578125q16.109375 -14.390625 43.828125 -14.390625q17.15625 0 27.578125 5.8125q10.4375 5.8125 15.84375 15.1875q5.421875 9.359375 7.390625 19.796875q1.984375 10.421875 2.25 19.921875l-40.65625 5.015625q-0.265625 -9.5 -1.1875 -16.484375q-0.921875 -7.0 -3.828125 -10.828125q-2.90625 -3.828125 -8.96875 -3.828125q-6.609375 0 -9.640625 5.546875q-3.03125 5.53125 -3.03125 11.078125q0 11.890625 5.671875 19.421875q5.671875 7.515625 14.90625 15.6875l17.6875 15.578125q14.0 11.890625 23.625 26.9375q9.640625 15.046875 9.640625 37.21875q0 15.046875 -6.859375 27.328125q-6.859375 12.26564 -19.40625 19.406265q-12.53125 7.125 -29.703125 7.125zm74.98761 -3.171875l0 -213.84377l47.25 0l0 213.84377l-47.25 0zm79.198364 0l0 -213.84377l55.703125 0q13.71875 0 26.0 2.125q12.28125 2.109375 21.78125 8.046875q9.5 5.9375 14.90625 16.890625q5.421875 10.953125 5.421875 28.90625q0 12.9375 -3.828125 21.78125q-3.828125 8.84375 -10.828125 14.125q-6.984375 5.28125 -16.765625 7.125q12.40625 1.59375 20.859375 8.0625q8.453125 6.46875 12.796875 17.296875q4.359375 10.8125 4.359375 26.125q0 16.625 -4.359375 28.640625q-4.34375 12.015625 -12.53125 19.67189q-8.1875 7.65625 -20.203125 11.359375q-12.0 3.6875 -27.578125 3.6875l-65.734375 0zm47.25 -33.000015l10.03125 0q15.578125 0 21.515625 -7.921875q5.9375 -7.921875 5.9375 -23.234375q0 -12.140625 -2.640625 -19.265625q-2.640625 -7.125 -8.71875 -10.421875q-6.0625 -3.3125 -16.359375 -3.3125l-9.765625 0l0 64.15625zm0 -95.296875l9.25 0q10.8125 0 16.359375 -3.296875q5.546875 -3.3125 7.515625 -9.640625q1.984375 -6.34375 1.984375 -15.3125q0 -8.453125 -3.03125 -14.125q-3.03125 -5.6875 -8.984375 -8.578125q-5.9375 -2.90625 -14.90625 -2.90625l-8.1875 0l0 53.859375zm107.98193 128.29689l0 -213.84377l47.25006 0l0 181.90625l49.109375 0l0 31.937515l-96.359436 0zm114.84003 0l0 -213.84377l96.09375 0l0 32.21875l-48.84375 0l0 53.0625l37.21875 0l0 32.734375l-37.21875 0l0 63.890625l49.375 0l0 31.937515l-96.625 0z" fill-rule="nonzero"/><path fill="#000000" fill-opacity="0.0" d="m114.9383 176.53276l30.750343 52.466232" fill-rule="evenodd"/><path stroke="#ffffff" stroke-width="16.0" stroke-linejoin="round" stroke-linecap="butt" d="m114.9383 176.53276l30.750343 52.466232" fill-rule="evenodd"/><path fill="#000000" fill-opacity="0.0" d="m227.72162 238.60492l20.762695 -25.32138" fill-rule="evenodd"/><path stroke="#ffffff" stroke-width="16.0" stroke-linejoin="round" stroke-linecap="butt" d="m227.72162 238.60492l20.762695 -25.32138" fill-rule="evenodd"/><path fill="#00ffff" fill-opacity="0.9098" d="m214.35968 314.8372l0 0c1.6537018 17.007904 -11.028427 32.092163 -28.2697 33.780914l0 0c-17.305466 1.6950378 -32.67485 -10.641602 -34.328552 -27.649506l0 0c-1.6394348 -16.861115 11.057449 -32.010345 28.362915 -33.705383l0 0c17.241272 -1.6887512 32.5959 10.71286 34.235336 27.573975" fill-rule="evenodd"/><path stroke="#000000" stroke-width="12.0" stroke-linejoin="round" stroke-linecap="butt" stroke-opacity="0.0" d="m214.35968 314.8372l0 0c1.6537018 17.007904 -11.028427 32.092163 -28.2697 33.780914l0 0c-17.305466 1.6950378 -32.67485 -10.641602 -34.328552 -27.649506l0 0c-1.6394348 -16.861115 11.057449 -32.010345 28.362915 -33.705383l0 0c17.241272 -1.6887512 32.5959 10.71286 34.235336 27.573975" fill-rule="evenodd"/><path fill="#00ffff" fill-opacity="0.9098" d="m227.97644 146.29675l0 0c0 -36.849792 29.87265 -66.72246 66.72244 -66.72246l0 0c17.695923 0 34.667023 7.0296707 47.1799 19.542557c12.512909 12.512894 19.542572 29.484009 19.542572 47.1799l0 0c0 36.849792 -29.87268 66.72246 -66.72247 66.72246l0 0c-36.849792 0 -66.72244 -29.872665 -66.72244 -66.72246z" fill-rule="evenodd"/><path fill="#00ffff" fill-opacity="0.9098" d="m44.3649 123.02678l0 0c0 -23.998138 19.454342 -43.452484 43.452484 -43.452484l0 0c11.524315 0 22.576622 4.578018 30.725548 12.726944c8.148918 8.148918 12.726936 19.201225 12.726936 30.72554l0 0c0 23.998138 -19.454338 43.452484 -43.452484 43.452484l0 0c-23.998142 0 -43.452484 -19.454346 -43.452484 -43.452484z" fill-rule="evenodd"/><path fill="#00ffff" fill-opacity="0.9098" d="m125.72787 294.33954l0 0c0 -31.677094 25.67936 -57.356445 57.356453 -57.356445l0 0c15.211868 0 29.800705 6.0428925 40.55713 16.799316c10.756424 10.756409 16.799316 25.345245 16.799316 40.55713l0 0c0 31.677094 -25.679367 57.356445 -57.356445 57.356445l0 0c-31.677094 0 -57.356453 -25.679352 -57.356453 -57.356445z" fill-rule="evenodd"/><path fill="#00dada" fill-opacity="0.9098" d="m125.72787 294.33954l0 0c0 -31.677094 25.67936 -57.356445 57.356453 -57.356445l0 0c15.211868 0 29.800705 6.0428925 40.55713 16.799316c10.756424 10.756409 16.799316 25.345245 16.799316 40.55713l0 0c0 31.677094 -25.679367 57.356445 -57.356445 57.356445l0 0c-31.677094 0 -57.356453 -25.679352 -57.356453 -57.356445z" fill-rule="evenodd"/><path fill="#00ffff" fill-opacity="0.9098" d="m227.97644 146.29675l0 0c0 -36.849792 29.87265 -66.72246 66.72244 -66.72246l0 0c17.695923 0 34.667023 7.0296707 47.1799 19.542557c12.512909 12.512894 19.542572 29.484009 19.542572 47.1799l0 0c0 36.849792 -29.87268 66.72246 -66.72247 66.72246l0 0c-36.849792 0 -66.72244 -29.872665 -66.72244 -66.72246z" fill-rule="evenodd"/><path fill="#00baba" d="m44.3649 123.02678l0 0c0 -23.998138 19.454342 -43.452484 43.452484 -43.452484l0 0c11.524315 0 22.576622 4.578018 30.725548 12.726944c8.148918 8.148918 12.726936 19.201225 12.726936 30.72554l0 0c0 23.998138 -19.454338 43.452484 -43.452484 43.452484l0 0c-23.998142 0 -43.452484 -19.454346 -43.452484 -43.452484z" fill-rule="evenodd"/><path fill="#000000" fill-opacity="0.0" d="m382.0002 312.49606l830.01575 0l0 64.724396l-830.01575 0z" fill-rule="evenodd"/><path fill="#ffffff" d="m436.1926 306.53262l10.4375 0l7.40625 53.28125l0.421875 0l7.453125 -53.28125l10.390625 0l-12.25 67.265625l-11.65625 0l-12.203125 -67.265625zm49.470062 67.859375q-2.53125 0 -4.484375 -1.0q-1.9375 -1.015625 -3.28125 -2.75q-1.34375 -1.734375 -2.03125 -4.109375q-0.6875 -2.390625 -0.6875 -5.171875q0 -3.359375 0.828125 -5.953125q0.828125 -2.59375 2.421875 -4.6875q1.59375 -2.09375 3.953125 -3.796875q2.375 -1.71875 5.484375 -3.25q1.484375 -0.75 3.359375 -1.515625q1.875 -0.765625 3.328125 -1.328125l0 -7.15625q0 -1.578125 -0.125 -2.9375q-0.109375 -1.359375 -0.5625 -2.359375q-0.453125 -1.015625 -1.359375 -1.578125q-0.90625 -0.578125 -2.484375 -0.578125q-1.0625 0 -2.0625 0.40625q-1.0 0.390625 -1.78125 1.34375q-0.765625 0.9375 -1.21875 2.515625q-0.453125 1.5625 -0.453125 3.890625l0 2.359375l-7.59375 0q-0.359375 -1.53125 -0.53125 -2.8125q-0.171875 -1.28125 -0.171875 -2.546875q0 -3.03125 1.03125 -5.34375q1.046875 -2.328125 2.921875 -3.90625q1.875 -1.578125 4.46875 -2.375q2.59375 -0.8125 5.71875 -0.8125q4.046875 0 6.71875 0.890625q2.6875 0.875 4.28125 2.65625q1.59375 1.765625 2.234375 4.453125q0.65625 2.671875 0.65625 6.25l0 40.609375l-7.40625 0l-0.703125 -4.640625q-1.609375 2.3125 -4.3125 3.78125q-2.703125 1.453125 -6.15625 1.453125zm4.40625 -7.6875q1.265625 0 2.453125 -0.640625q1.203125 -0.65625 2.03125 -1.59375l0 -16.984375q-0.78125 0.3125 -1.765625 0.75q-0.984375 0.4375 -2.125 1.140625q-1.0625 0.671875 -2.09375 1.625q-1.015625 0.9375 -1.828125 2.234375q-0.8125 1.296875 -1.3125 2.9375q-0.484375 1.640625 -0.484375 3.640625q0 3.109375 1.21875 5.0q1.21875 1.890625 3.90625 1.890625zm24.655457 -64.546875l9.953125 0l0 71.640625l-9.953125 0l0 -71.640625zm20.440369 17.40625l9.953125 0l0 40.765625q0 3.578125 1.109375 4.984375q1.109375 1.390625 3.234375 1.390625q1.484375 0 2.90625 -0.828125q1.421875 -0.828125 2.5625 -2.359375l0 -43.953125l9.96875 0l0 54.234375l-7.609375 0l-0.984375 -5.796875l-0.03125 0q-1.1875 1.859375 -2.515625 3.109375q-1.3125 1.234375 -2.75 1.96875q-1.4375 0.71875 -2.9375 1.03125q-1.484375 0.3125 -2.984375 0.3125q-4.765625 0 -7.34375 -3.296875q-2.578125 -3.3125 -2.578125 -10.015625l0 -41.546875zm53.194397 54.828125q-3.5 0 -6.203125 -1.296875q-2.6875 -1.3125 -4.546875 -4.0625q-1.84375 -2.75 -2.796875 -7.0625q-0.9375 -4.3125 -0.9375 -10.390625l0 -10.234375q0 -5.15625 0.765625 -8.828125q0.765625 -3.6875 2.0 -6.1875q1.25 -2.515625 2.875 -3.96875q1.640625 -1.453125 3.375 -2.21875q1.734375 -0.765625 3.4375 -0.984375q1.71875 -0.21875 3.1875 -0.21875q2.671875 0 5.15625 0.8125q2.484375 0.796875 4.375 2.75q1.890625 1.953125 3.0 5.21875q1.125 3.265625 1.125 8.15625q0 1.65625 -0.09375 3.34375q-0.09375 1.6875 -0.265625 3.328125q-0.15625 1.640625 -0.40625 3.171875q-0.25 1.53125 -0.53125 2.828125l-18.0 0l0 5.515625q0 3.546875 0.265625 5.96875q0.28125 2.421875 0.9375 3.90625q0.65625 1.46875 1.765625 2.125q1.125 0.640625 2.828125 0.640625q0.90625 0 1.765625 -0.375q0.875 -0.375 1.515625 -1.234375q0.65625 -0.859375 1.046875 -2.296875q0.390625 -1.4375 0.390625 -3.578125l0 -1.6875l8.3125 0l0 2.09375q0 7.71875 -3.6875 11.25q-3.671875 3.515625 -10.65625 3.515625zm5.515625 -32.53125q0.046875 -0.4375 0.078125 -1.15625q0.046875 -0.734375 0.0625 -1.515625q0.015625 -0.796875 0.015625 -1.5625q0 -0.765625 0 -1.328125q0 -5.34375 -1.265625 -7.703125q-1.25 -2.375 -3.734375 -2.375q-1.296875 0 -2.28125 0.609375q-0.984375 0.609375 -1.625 2.046875q-0.625 1.4375 -0.9375 3.8125q-0.3125 2.359375 -0.3125 5.859375l0 3.3125l10.0 0zm33.013916 18.3125q0 -2.171875 0.25 -4.0q0.25 -1.828125 0.765625 -3.953125l7.921875 0l0 3.265625q0 2.71875 0.328125 4.8125q0.34375 2.078125 1.109375 3.515625q0.76556396 1.4375 2.046814 2.171875q1.28125 0.71875 3.125 0.71875q2.921875 0 4.453125 -1.59375q1.53125 -1.59375 1.53125 -4.65625q0 -1.578125 -0.21875 -2.890625q-0.203125 -1.328125 -0.734375 -2.625q-0.53125 -1.3125 -1.4375 -2.734375q-0.90625 -1.4375 -2.328125 -3.21875l-10.640564 -12.640625q-2.828125 -3.625 -4.375 -7.296875q-1.53125 -3.6875 -1.53125 -7.859375q0 -3.359375 1.046875 -6.15625q1.046875 -2.796875 3.015625 -4.8125q1.96875 -2.03125 4.859375 -3.15625q2.890564 -1.125 6.562439 -1.125q4.453125 0 7.421875 1.265625q2.96875 1.25 4.734375 3.3125q1.78125 2.046875 2.5 4.59375q0.734375 2.53125 0.734375 5.09375q0 2.15625 -0.328125 4.0q-0.328125 1.828125 -0.765625 4.03125l-7.875 0l0 -3.1875q0 -5.359375 -1.546875 -8.21875q-1.53125 -2.859375 -5.0 -2.859375q-2.875 0 -4.296875 1.609375q-1.406189 1.59375 -1.406189 4.265625q0 1.421875 0.21875 2.5625q0.21875 1.140625 0.625 2.109375q0.40618896 0.953125 0.99993896 1.859375q0.59375 0.90625 1.34375 1.890625l11.859375 14.34375q3.21875 4.203125 4.953125 8.09375q1.734375 3.875 1.734375 8.203125q0 3.59375 -1.125 6.46875q-1.125 2.875 -3.21875 4.890625q-2.078125 2.0 -5.03125 3.078125q-2.953125 1.078125 -6.65625 1.078125q-4.562439 0 -7.578064 -1.21875q-3.015625 -1.21875 -4.8125 -3.21875q-1.78125 -2.015625 -2.515625 -4.578125q-0.71875 -2.5625 -0.71875 -5.234375zm40.7594 -33.515625l-4.21875 0l0 -7.09375l5.078125 0l2.015625 -14.0625l7.078125 0l0 14.0625l8.671875 0l0 7.09375l-8.671875 0l0 34.5q0 1.765625 0.328125 2.859375q0.34375 1.078125 0.9375 1.6875q0.59375 0.609375 1.375 0.8125q0.796875 0.1875 1.65625 0.1875q1.453125 0 2.578125 -0.34375q1.125 -0.359375 2.15625 -0.984375l0 5.5q-0.875 1.078125 -1.875 1.75q-1.0 0.65625 -2.0625 1.078125q-1.0625 0.40625 -2.171875 0.5625q-1.109375 0.15625 -2.171875 0.15625q-2.078125 0 -4.015625 -0.546875q-1.921875 -0.546875 -3.421875 -2.09375q-1.5 -1.5625 -2.390625 -4.3125q-0.875 -2.765625 -0.875 -7.1875l0 -33.625zm25.442871 -7.09375l7.28125 0l0.859375 5.515625q1.65625 -3.0625 3.796875 -4.59375q2.15625 -1.546875 4.40625 -1.546875q4.28125 0 6.328125 2.640625q2.0625 2.640625 2.0625 7.90625q0 0.671875 -0.109375 1.609375q-0.09375 0.921875 -0.28125 1.921875q-0.171875 1.0 -0.4375 2.015625q-0.25 1.0 -0.515625 1.828125l-6.9375 0l0 -5.046875q0 -1.65625 -0.21875 -2.71875q-0.203125 -1.0625 -0.5625 -1.703125q-0.359375 -0.65625 -0.828125 -0.90625q-0.46875 -0.265625 -1.03125 -0.265625q-1.171875 0 -2.1875 0.78125q-1.0 0.765625 -1.671875 2.140625l0 44.65625l-9.953125 0l0 -54.234375zm44.096252 54.828125q-3.5 0 -6.203125 -1.296875q-2.6875 -1.3125 -4.546875 -4.0625q-1.84375 -2.75 -2.796875 -7.0625q-0.9375 -4.3125 -0.9375 -10.390625l0 -10.234375q0 -5.15625 0.765625 -8.828125q0.765625 -3.6875 2.0 -6.1875q1.25 -2.515625 2.875 -3.96875q1.640625 -1.453125 3.375 -2.21875q1.734375 -0.765625 3.4375 -0.984375q1.71875 -0.21875 3.1875 -0.21875q2.671875 0 5.15625 0.8125q2.484375 0.796875 4.375 2.75q1.890625 1.953125 3.0 5.21875q1.125 3.265625 1.125 8.15625q0 1.65625 -0.09375 3.34375q-0.09375 1.6875 -0.265625 3.328125q-0.15625 1.640625 -0.40625 3.171875q-0.25 1.53125 -0.53125 2.828125l-18.0 0l0 5.515625q0 3.546875 0.265625 5.96875q0.28125 2.421875 0.9375 3.90625q0.65625 1.46875 1.765625 2.125q1.125 0.640625 2.828125 0.640625q0.90625 0 1.765625 -0.375q0.875 -0.375 1.515625 -1.234375q0.65625 -0.859375 1.046875 -2.296875q0.390625 -1.4375 0.390625 -3.578125l0 -1.6875l8.3125 0l0 2.09375q0 7.71875 -3.6875 11.25q-3.671875 3.515625 -10.65625 3.515625zm5.515625 -32.53125q0.046875 -0.4375 0.078125 -1.15625q0.046875 -0.734375 0.0625 -1.515625q0.015625 -0.796875 0.015625 -1.5625q0 -0.765625 0 -1.328125q0 -5.34375 -1.265625 -7.703125q-1.25 -2.375 -3.734375 -2.375q-1.296875 0 -2.28125 0.609375q-0.984375 0.609375 -1.625 2.046875q-0.625 1.4375 -0.9375 3.8125q-0.3125 2.359375 -0.3125 5.859375l0 3.3125l10.0 0zm25.217346 32.53125q-2.53125 0 -4.484375 -1.0q-1.9375 -1.015625 -3.28125 -2.75q-1.34375 -1.734375 -2.03125 -4.109375q-0.6875 -2.390625 -0.6875 -5.171875q0 -3.359375 0.828125 -5.953125q0.828125 -2.59375 2.421875 -4.6875q1.59375 -2.09375 3.953125 -3.796875q2.375 -1.71875 5.484375 -3.25q1.484375 -0.75 3.359375 -1.515625q1.875 -0.765625 3.328125 -1.328125l0 -7.15625q0 -1.578125 -0.125 -2.9375q-0.109375 -1.359375 -0.5625 -2.359375q-0.453125 -1.015625 -1.359375 -1.578125q-0.90625 -0.578125 -2.484375 -0.578125q-1.0625 0 -2.0625 0.40625q-1.0 0.390625 -1.78125 1.34375q-0.765625 0.9375 -1.21875 2.515625q-0.453125 1.5625 -0.453125 3.890625l0 2.359375l-7.59375 0q-0.359375 -1.53125 -0.53125 -2.8125q-0.171875 -1.28125 -0.171875 -2.546875q0 -3.03125 1.03125 -5.34375q1.046875 -2.328125 2.921875 -3.90625q1.875 -1.578125 4.46875 -2.375q2.59375 -0.8125 5.71875 -0.8125q4.046875 0 6.71875 0.890625q2.6875 0.875 4.28125 2.65625q1.59375 1.765625 2.234375 4.453125q0.65625 2.671875 0.65625 6.25l0 40.609375l-7.40625 0l-0.703125 -4.640625q-1.609375 2.3125 -4.3125 3.78125q-2.703125 1.453125 -6.15625 1.453125zm4.40625 -7.6875q1.265625 0 2.453125 -0.640625q1.203125 -0.65625 2.03125 -1.59375l0 -16.984375q-0.78125 0.3125 -1.765625 0.75q-0.984375 0.4375 -2.125 1.140625q-1.0625 0.671875 -2.09375 1.625q-1.015625 0.9375 -1.828125 2.234375q-0.8125 1.296875 -1.3125 2.9375q-0.484375 1.640625 -0.484375 3.640625q0 3.109375 1.21875 5.0q1.21875 1.890625 3.90625 1.890625zm24.499207 -47.140625l7.71875 0l0.859375 5.796875l0 0.03125q1.1875 -1.84375 2.515625 -3.078125q1.34375 -1.25 2.78125 -2.0q1.4375 -0.75 2.953125 -1.0625q1.515625 -0.3125 3.015625 -0.3125q3.1875 0 5.390625 1.546875q2.203125 1.53125 3.359375 4.59375q1.171875 -1.765625 2.484375 -2.953125q1.328125 -1.1875 2.75 -1.890625q1.421875 -0.703125 2.875 -1.0q1.453125 -0.296875 2.953125 -0.296875q4.71875 0 7.296875 3.328125q2.578125 3.328125 2.578125 9.984375l0 41.546875l-9.953125 0l0 -41.1875q0 -1.78125 -0.28125 -3.0q-0.28125 -1.21875 -0.828125 -1.96875q-0.546875 -0.75 -1.421875 -1.078125q-0.859375 -0.34375 -2.078125 -0.34375q-1.375 0 -2.765625 1.015625q-1.375 1.0 -2.515625 2.765625q0.046875 0.359375 0.046875 0.71875q0 0.34375 0 0.703125l0 42.375l-9.96875 0l0 -41.1875q0 -1.78125 -0.28125 -3.0q-0.265625 -1.21875 -0.828125 -1.96875q-0.546875 -0.75 -1.421875 -1.078125q-0.859375 -0.34375 -2.078125 -0.34375q-1.34375 0 -2.71875 0.984375q-1.375 0.984375 -2.484375 2.71875l0 43.875l-9.953125 0l0 -54.234375zm92.236755 54.828125q-1.578125 0 -3.421875 -0.265625q-1.828125 -0.25 -3.65625 -1.078125q-1.828125 -0.828125 -3.5 -2.34375q-1.671875 -1.515625 -2.953125 -3.984375q-1.28125 -2.484375 -2.046875 -6.125q-0.765625 -3.65625 -0.765625 -8.6875l0 -23.828125q0 -5.078125 0.78125 -8.6875q0.78125 -3.609375 2.078125 -6.0625q1.3125 -2.46875 3.0 -3.921875q1.6875 -1.453125 3.5 -2.21875q1.8125 -0.78125 3.609375 -1.015625q1.796875 -0.234375 3.328125 -0.234375q4.015625 0 6.703125 1.125q2.703125 1.125 4.34375 3.078125q1.640625 1.9375 2.328125 4.546875q0.6875 2.59375 0.6875 5.515625q0 2.15625 -0.21875 4.0q-0.21875 1.828125 -0.65625 4.03125l-8.265625 0l0 -3.4375q0 -5.546875 -1.21875 -8.296875q-1.21875 -2.765625 -3.578125 -2.765625q-1.421875 0 -2.484375 0.5625q-1.0625 0.546875 -1.78125 1.875q-0.703125 1.3125 -1.078125 3.484375q-0.375 2.15625 -0.375 5.390625l0 30.71875q0 3.140625 0.296875 5.234375q0.296875 2.078125 0.96875 3.34375q0.671875 1.265625 1.75 1.796875q1.078125 0.53125 2.625 0.53125q0.984375 0 1.875 -0.453125q0.90625 -0.453125 1.59375 -1.421875q0.703125 -0.96875 1.109375 -2.4375q0.421875 -1.484375 0.421875 -3.484375l0 -6.578125l9.328125 0l0 6.21875q0 8.109375 -3.703125 11.96875q-3.703125 3.859375 -10.625 3.90625zm35.393677 0q-1.734375 0 -3.53125 -0.28125q-1.78125 -0.265625 -3.453125 -1.125q-1.671875 -0.875 -3.15625 -2.484375q-1.46875 -1.625 -2.578125 -4.265625q-1.09375 -2.640625 -1.734375 -6.5q-0.625 -3.859375 -0.625 -9.21875l0 -8.5q0 -5.28125 0.640625 -9.03125q0.65625 -3.765625 1.78125 -6.328125q1.125 -2.5625 2.609375 -4.078125q1.5 -1.515625 3.171875 -2.3125q1.6875 -0.8125 3.453125 -1.0625q1.765625 -0.265625 3.46875 -0.265625q1.609375 0 3.34375 0.234375q1.734375 0.234375 3.390625 1.0q1.65625 0.765625 3.125 2.296875q1.484375 1.515625 2.59375 4.078125q1.125 2.546875 1.78125 6.359375q0.65625 3.796875 0.65625 9.109375l0 8.5q0 5.28125 -0.671875 9.109375q-0.671875 3.8125 -1.8125 6.453125q-1.140625 2.640625 -2.640625 4.28125q-1.5 1.625 -3.15625 2.53125q-1.65625 0.90625 -3.375 1.203125q-1.703125 0.296875 -3.28125 0.296875zm0.078125 -7.6875q1.34375 0 2.265625 -0.6875q0.921875 -0.6875 1.5 -2.265625q0.578125 -1.578125 0.828125 -4.15625q0.25 -2.578125 0.25 -6.390625l0 -13.359375q0 -3.8125 -0.25 -6.40625q-0.25 -2.609375 -0.828125 -4.203125q-0.578125 -1.59375 -1.5 -2.296875q-0.921875 -0.71875 -2.265625 -0.71875q-1.40625 0 -2.375 0.71875q-0.96875 0.703125 -1.609375 2.296875q-0.625 1.59375 -0.90625 4.203125q-0.265625 2.59375 -0.265625 6.40625l0 13.359375q0 3.8125 0.265625 6.390625q0.28125 2.578125 0.90625 4.15625q0.640625 1.578125 1.609375 2.265625q0.96875 0.6875 2.375 0.6875zm23.679382 -47.140625l7.671875 0l0.90625 5.796875l0 0.03125q1.1875 -1.84375 2.546875 -3.078125q1.359375 -1.25 2.8125 -2.0q1.453125 -0.75 2.96875 -1.0625q1.515625 -0.3125 3.015625 -0.3125q4.765625 0 7.34375 3.328125q2.578125 3.328125 2.578125 9.984375l0 41.546875l-9.953125 0l0 -41.1875q0 -3.59375 -1.109375 -4.984375q-1.109375 -1.40625 -3.234375 -1.40625q-1.5 0 -2.984375 0.984375q-1.46875 0.984375 -2.609375 2.71875l0 43.875l-9.953125 0l0 -54.234375zm38.045654 42.890625q0 -1.765625 0.328125 -3.421875q0.328125 -1.65625 0.65625 -2.640625l7.0 0q0 2.953125 0.296875 4.953125q0.296875 1.984375 0.96875 3.171875q0.671875 1.171875 1.78125 1.6875q1.125 0.5 2.75 0.5q2.234375 0 3.25 -1.25q1.03125 -1.265625 1.03125 -2.921875q0 -0.859375 -0.234375 -1.640625q-0.234375 -0.796875 -0.671875 -1.59375q-0.421875 -0.8125 -1.0625 -1.640625q-0.625 -0.828125 -1.40625 -1.8125l-7.296875 -8.59375q-1.40625 -1.765625 -2.734375 -3.59375q-1.3125 -1.84375 -2.328125 -3.78125q-1.0 -1.953125 -1.609375 -4.078125q-0.609375 -2.125 -0.609375 -4.5q0 -3.140625 1.078125 -5.46875q1.09375 -2.328125 2.921875 -3.859375q1.828125 -1.53125 4.234375 -2.28125q2.40625 -0.75 5.078125 -0.75q2.953125 0 5.3125 0.71875q2.375 0.703125 4.0625 2.125q1.6875 1.40625 2.59375 3.515625q0.90625 2.109375 0.90625 4.90625q0 1.890625 -0.34375 3.671875q-0.328125 1.765625 -0.640625 3.015625l-6.890625 0q-0.03125 -2.671875 -0.234375 -4.671875q-0.203125 -2.015625 -0.734375 -3.328125q-0.53125 -1.328125 -1.453125 -2.0q-0.921875 -0.671875 -2.421875 -0.671875q-1.296875 0 -2.171875 0.421875q-0.859375 0.40625 -1.390625 1.078125q-0.53125 0.671875 -0.75 1.5q-0.21875 0.828125 -0.21875 1.6875q0 1.890625 0.90625 3.515625q0.90625 1.609375 2.40625 3.5l7.953125 9.328125q0.875 1.0625 2.015625 2.578125q1.140625 1.515625 2.15625 3.359375q1.03125 1.828125 1.734375 4.0q0.71875 2.15625 0.71875 4.515625q0 2.875 -0.90625 5.21875q-0.90625 2.34375 -2.6875 4.0q-1.765625 1.65625 -4.34375 2.5625q-2.578125 0.90625 -5.890625 0.90625q-2.71875 0 -5.125 -0.609375q-2.40625 -0.609375 -4.171875 -2.0q-1.765625 -1.40625 -2.796875 -3.6875q-1.015625 -2.296875 -1.015625 -5.640625zm34.851562 -42.890625l9.953186 0l0 40.765625q0 3.578125 1.109375 4.984375q1.109375 1.390625 3.234375 1.390625q1.484375 0 2.90625 -0.828125q1.421875 -0.828125 2.5625 -2.359375l0 -43.953125l9.96875 0l0 54.234375l-7.609375 0l-0.984375 -5.796875l-0.03125 0q-1.1875 1.859375 -2.515625 3.109375q-1.3125 1.234375 -2.75 1.96875q-1.4375 0.71875 -2.9375 1.03125q-1.484375 0.3125 -2.984375 0.3125q-4.765625 0 -7.343811 -3.296875q-2.578125 -3.3125 -2.578125 -10.015625l0 -41.546875zm40.288147 -17.40625l9.953125 0l0 71.640625l-9.953125 0l0 -71.640625zm21.502808 24.5l-4.21875 0l0 -7.09375l5.078125 0l2.015625 -14.0625l7.078125 0l0 14.0625l8.671875 0l0 7.09375l-8.671875 0l0 34.5q0 1.765625 0.328125 2.859375q0.34375 1.078125 0.9375 1.6875q0.59375 0.609375 1.375 0.8125q0.796875 0.1875 1.65625 0.1875q1.453125 0 2.578125 -0.34375q1.125 -0.359375 2.15625 -0.984375l0 5.5q-0.875 1.078125 -1.875 1.75q-1.0 0.65625 -2.0625 1.078125q-1.0625 0.40625 -2.171875 0.5625q-1.109375 0.15625 -2.171875 0.15625q-2.078125 0 -4.015625 -0.546875q-1.921875 -0.546875 -3.421875 -2.09375q-1.5 -1.5625 -2.390625 -4.3125q-0.875 -2.765625 -0.875 -7.1875l0 -33.625zm30.755371 -14.84375q-2.765625 0 -4.359375 -1.65625q-1.59375 -1.65625 -1.59375 -4.84375q0 -1.78125 0.40625 -2.96875q0.421875 -1.203125 1.1875 -1.9375q0.78125 -0.734375 1.875 -1.0625q1.109375 -0.328125 2.515625 -0.328125q2.953125 0 4.484375 1.5q1.546875 1.484375 1.546875 4.796875q0 3.0625 -1.5625 4.78125q-1.546875 1.71875 -4.5 1.71875zm-5.15625 7.75l9.953125 0l0 54.234375l-9.953125 0l0 -54.234375zm20.362305 0l7.671875 0l0.90625 5.796875l0 0.03125q1.1875 -1.84375 2.546875 -3.078125q1.359375 -1.25 2.8125 -2.0q1.453125 -0.75 2.96875 -1.0625q1.515625 -0.3125 3.015625 -0.3125q4.765625 0 7.34375 3.328125q2.578125 3.328125 2.578125 9.984375l0 41.546875l-9.953125 0l0 -41.1875q0 -3.59375 -1.109375 -4.984375q-1.109375 -1.40625 -3.234375 -1.40625q-1.5 0 -2.984375 0.984375q-1.46875 0.984375 -2.609375 2.71875l0 43.875l-9.953125 0l0 -54.234375zm48.279907 57.9375q0 3.5 1.296875 4.953125q1.296875 1.46875 4.015625 1.46875q1.109375 0 2.125 -0.34375q1.03125 -0.328125 1.796875 -1.21875q0.765625 -0.890625 1.234375 -2.46875q0.484375 -1.5625 0.484375 -4.046875l0 -8.546875q-1.34375 1.734375 -3.453125 2.984375q-2.109375 1.234375 -5.21875 1.234375q-0.90625 0 -2.125 -0.171875q-1.21875 -0.1875 -2.53125 -0.8125q-1.296875 -0.640625 -2.5625 -1.90625q-1.25 -1.28125 -2.234375 -3.453125q-0.984375 -2.171875 -1.59375 -5.421875q-0.609375 -3.25 -0.609375 -7.84375l0 -14.265625q0 -4.40625 0.609375 -7.5q0.609375 -3.09375 1.59375 -5.171875q0.984375 -2.09375 2.265625 -3.265625q1.28125 -1.1875 2.59375 -1.796875q1.328125 -0.609375 2.578125 -0.765625q1.265625 -0.171875 2.25 -0.171875q1.96875 0 3.484375 0.515625q1.515625 0.515625 2.640625 1.359375q1.125 0.84375 1.90625 1.90625q0.796875 1.0625 1.34375 2.140625l0.90625 -5.359375l7.765625 0l0 52.0625q0 4.53125 -0.875 8.171875q-0.859375 3.640625 -2.71875 6.21875q-1.84375 2.578125 -4.703125 3.953125q-2.859375 1.390625 -6.828125 1.390625q-2.6875 0 -5.046875 -0.484375q-2.359375 -0.46875 -4.140625 -1.671875q-1.765625 -1.203125 -2.796875 -3.265625q-1.015625 -2.0625 -1.015625 -5.25q0 -0.5625 0.109375 -1.390625q0.125 -0.828125 0.40625 -1.765625l7.046875 0zm5.671875 -13.703125q0.984375 0 1.75 -0.328125q0.765625 -0.34375 1.375 -0.890625q0.609375 -0.5625 1.0625 -1.265625q0.453125 -0.703125 0.765625 -1.453125l0 -29.65625q-0.734375 -1.65625 -1.984375 -2.8125q-1.234375 -1.171875 -3.015625 -1.171875q-1.09375 0 -2.0 0.40625q-0.90625 0.390625 -1.578125 1.46875q-0.671875 1.078125 -1.046875 3.0q-0.375 1.90625 -0.375 4.9375l0 17.84375q0 3.03125 0.375 4.96875q0.375 1.921875 1.046875 3.03125q0.671875 1.09375 1.59375 1.515625q0.921875 0.40625 2.03125 0.40625z" fill-rule="nonzero"/><path fill="#000000" fill-opacity="0.0" d="m373.65143 450.0235l887.40155 0l0 333.3543l-887.40155 0z" fill-rule="evenodd"/><path fill="#434343" d="m428.0108 708.4635l-38.546875 -213.84375l40.390625 0l22.96875 145.20312l21.375 -145.20312l42.765625 0l-39.0625 213.84375l-49.890625 0zm110.61395 0l0 -213.84375l47.25 0l0 213.84375l-47.25 0zm135.94836 3.171875q-20.0625 0 -33.53125 -7.125q-13.453125 -7.140625 -20.328125 -22.046875q-6.859375 -14.921875 -7.640625 -38.6875l40.390625 -6.0625q0.265625 13.71875 2.5 22.171875q2.25 8.453125 6.34375 12.15625q4.09375 3.6875 9.890625 3.6875q7.390625 0 9.640625 -5.015625q2.25 -5.015625 2.25 -10.5625q0 -13.203125 -6.34375 -22.3125q-6.328125 -9.109375 -17.15625 -18.34375l-18.484375 -16.109375q-12.140625 -10.296875 -20.453125 -23.359375q-8.3125 -13.0625 -8.3125 -32.34375q0 -27.1875 16.09375 -41.578125q16.109375 -14.390625 43.828125 -14.390625q17.15625 0 27.578125 5.8125q10.4375 5.8125 15.84375 15.1875q5.421875 9.359375 7.390625 19.796875q1.984375 10.421875 2.25 19.921875l-40.65625 5.015625q-0.265625 -9.5 -1.1875 -16.484375q-0.921875 -7.0 -3.828125 -10.828125q-2.90625 -3.828125 -8.96875 -3.828125q-6.609375 0 -9.640625 5.546875q-3.03125 5.53125 -3.03125 11.078125q0 11.890625 5.671875 19.421875q5.671875 7.515625 14.90625 15.6875l17.6875 15.578125q14.0 11.890625 23.625 26.9375q9.640625 15.046875 9.640625 37.21875q0 15.046875 -6.859375 27.328125q-6.859375 12.265625 -19.40625 19.40625q-12.53125 7.125 -29.703125 7.125zm74.98761 -3.171875l0 -213.84375l47.25 0l0 213.84375l-47.25 0zm79.198364 0l0 -213.84375l55.703125 0q13.71875 0 26.0 2.125q12.28125 2.109375 21.78125 8.046875q9.5 5.9375 14.90625 16.890625q5.421875 10.953125 5.421875 28.90625q0 12.9375 -3.828125 21.78125q-3.828125 8.84375 -10.828125 14.125q-6.984375 5.28125 -16.765625 7.125q12.40625 1.59375 20.859375 8.0625q8.453125 6.46875 12.796875 17.296875q4.359375 10.8125 4.359375 26.125q0 16.625 -4.359375 28.640625q-4.34375 12.015625 -12.53125 19.671875q-8.1875 7.65625 -20.203125 11.359375q-12.0 3.6875 -27.578125 3.6875l-65.734375 0zm47.25 -33.0l10.03125 0q15.578125 0 21.515625 -7.921875q5.9375 -7.921875 5.9375 -23.234375q0 -12.140625 -2.640625 -19.265625q-2.640625 -7.125 -8.71875 -10.421875q-6.0625 -3.3125 -16.359375 -3.3125l-9.765625 0l0 64.15625zm0 -95.296875l9.25 0q10.8125 0 16.359375 -3.296875q5.546875 -3.3125 7.515625 -9.640625q1.984375 -6.34375 1.984375 -15.3125q0 -8.453125 -3.03125 -14.125q-3.03125 -5.6875 -8.984375 -8.578125q-5.9375 -2.90625 -14.90625 -2.90625l-8.1875 0l0 53.859375zm107.98193 128.29688l0 -213.84375l47.25006 0l0 181.90625l49.109375 0l0 31.9375l-96.359436 0zm114.84003 0l0 -213.84375l96.09375 0l0 32.21875l-48.84375 0l0 53.0625l37.21875 0l0 32.734375l-37.21875 0l0 63.890625l49.375 0l0 31.9375l-96.625 0z" fill-rule="nonzero"/><path fill="#000000" fill-opacity="0.0" d="m114.9383 610.5328l30.750343 52.466187" fill-rule="evenodd"/><path stroke="#cccccc" stroke-width="16.0" stroke-linejoin="round" stroke-linecap="butt" d="m114.9383 610.5328l30.750343 52.466187" fill-rule="evenodd"/><path fill="#000000" fill-opacity="0.0" d="m227.72162 672.6049l20.762695 -25.32135" fill-rule="evenodd"/><path stroke="#cccccc" stroke-width="16.0" stroke-linejoin="round" stroke-linecap="butt" d="m227.72162 672.6049l20.762695 -25.32135" fill-rule="evenodd"/><path fill="#00ffff" fill-opacity="0.9098" d="m214.35968 748.8372l0 0c1.6537018 17.007874 -11.028427 32.092163 -28.2697 33.780884l0 0c-17.305466 1.6950684 -32.67485 -10.641602 -34.328552 -27.649536l0 0c-1.6394348 -16.861084 11.057449 -32.010315 28.362915 -33.705322l0 0c17.241272 -1.6887817 32.5959 10.71283 34.235336 27.573975" fill-rule="evenodd"/><path stroke="#000000" stroke-width="12.0" stroke-linejoin="round" stroke-linecap="butt" stroke-opacity="0.0" d="m214.35968 748.8372l0 0c1.6537018 17.007874 -11.028427 32.092163 -28.2697 33.780884l0 0c-17.305466 1.6950684 -32.67485 -10.641602 -34.328552 -27.649536l0 0c-1.6394348 -16.861084 11.057449 -32.010315 28.362915 -33.705322l0 0c17.241272 -1.6887817 32.5959 10.71283 34.235336 27.573975" fill-rule="evenodd"/><path fill="#00ffff" fill-opacity="0.9098" d="m227.97644 580.29675l0 0c0 -36.849792 29.87265 -66.72247 66.72244 -66.72247l0 0c17.695923 0 34.667023 7.029663 47.1799 19.542603c12.512909 12.512878 19.542572 29.483948 19.542572 47.17987l0 0c0 36.849792 -29.87268 66.72247 -66.72247 66.72247l0 0c-36.849792 0 -66.72244 -29.87268 -66.72244 -66.72247z" fill-rule="evenodd"/><path fill="#00ffff" fill-opacity="0.9098" d="m44.3649 557.0268l0 0c0 -23.998169 19.454342 -43.452515 43.452484 -43.452515l0 0c11.524315 0 22.576622 4.578064 30.725548 12.726929c8.148918 8.148926 12.726936 19.201233 12.726936 30.725586l0 0c0 23.998108 -19.454338 43.452454 -43.452484 43.452454l0 0c-23.998142 0 -43.452484 -19.454346 -43.452484 -43.452454z" fill-rule="evenodd"/><path fill="#00ffff" fill-opacity="0.9098" d="m125.72787 728.33954l0 0c0 -31.677063 25.67936 -57.356445 57.356453 -57.356445l0 0c15.211868 0 29.800705 6.0429077 40.55713 16.799316c10.756424 10.756409 16.799316 25.345276 16.799316 40.55713l0 0c0 31.677124 -25.679367 57.356445 -57.356445 57.356445l0 0c-31.677094 0 -57.356453 -25.679321 -57.356453 -57.356445z" fill-rule="evenodd"/><path fill="#00dada" fill-opacity="0.9098" d="m125.72787 728.33954l0 0c0 -31.677063 25.67936 -57.356445 57.356453 -57.356445l0 0c15.211868 0 29.800705 6.0429077 40.55713 16.799316c10.756424 10.756409 16.799316 25.345276 16.799316 40.55713l0 0c0 31.677124 -25.679367 57.356445 -57.356445 57.356445l0 0c-31.677094 0 -57.356453 -25.679321 -57.356453 -57.356445z" fill-rule="evenodd"/><path fill="#00ffff" fill-opacity="0.9098" d="m227.97644 580.29675l0 0c0 -36.849792 29.87265 -66.72247 66.72244 -66.72247l0 0c17.695923 0 34.667023 7.029663 47.1799 19.542603c12.512909 12.512878 19.542572 29.483948 19.542572 47.17987l0 0c0 36.849792 -29.87268 66.72247 -66.72247 66.72247l0 0c-36.849792 0 -66.72244 -29.87268 -66.72244 -66.72247z" fill-rule="evenodd"/><path fill="#00baba" d="m44.3649 557.0268l0 0c0 -23.998169 19.454342 -43.452515 43.452484 -43.452515l0 0c11.524315 0 22.576622 4.578064 30.725548 12.726929c8.148918 8.148926 12.726936 19.201233 12.726936 30.725586l0 0c0 23.998108 -19.454338 43.452454 -43.452484 43.452454l0 0c-23.998142 0 -43.452484 -19.454346 -43.452484 -43.452454z" fill-rule="evenodd"/><path fill="#000000" fill-opacity="0.0" d="m382.0002 746.49603l830.01575 0l0 64.72443l-830.01575 0z" fill-rule="evenodd"/><path fill="#434343" d="m436.1926 740.53265l10.4375 0l7.40625 53.28125l0.421875 0l7.453125 -53.28125l10.390625 0l-12.25 67.265625l-11.65625 0l-12.203125 -67.265625zm49.470062 67.859375q-2.53125 0 -4.484375 -1.0q-1.9375 -1.015625 -3.28125 -2.75q-1.34375 -1.734375 -2.03125 -4.109375q-0.6875 -2.390625 -0.6875 -5.171875q0 -3.359375 0.828125 -5.953125q0.828125 -2.59375 2.421875 -4.6875q1.59375 -2.09375 3.953125 -3.796875q2.375 -1.71875 5.484375 -3.25q1.484375 -0.75 3.359375 -1.515625q1.875 -0.765625 3.328125 -1.328125l0 -7.15625q0 -1.578125 -0.125 -2.9375q-0.109375 -1.359375 -0.5625 -2.359375q-0.453125 -1.015625 -1.359375 -1.578125q-0.90625 -0.578125 -2.484375 -0.578125q-1.0625 0 -2.0625 0.40625q-1.0 0.390625 -1.78125 1.34375q-0.765625 0.9375 -1.21875 2.515625q-0.453125 1.5625 -0.453125 3.890625l0 2.359375l-7.59375 0q-0.359375 -1.53125 -0.53125 -2.8125q-0.171875 -1.28125 -0.171875 -2.546875q0 -3.03125 1.03125 -5.34375q1.046875 -2.328125 2.921875 -3.90625q1.875 -1.578125 4.46875 -2.375q2.59375 -0.8125 5.71875 -0.8125q4.046875 0 6.71875 0.890625q2.6875 0.875 4.28125 2.65625q1.59375 1.765625 2.234375 4.453125q0.65625 2.671875 0.65625 6.25l0 40.609375l-7.40625 0l-0.703125 -4.640625q-1.609375 2.3125 -4.3125 3.78125q-2.703125 1.453125 -6.15625 1.453125zm4.40625 -7.6875q1.265625 0 2.453125 -0.640625q1.203125 -0.65625 2.03125 -1.59375l0 -16.984375q-0.78125 0.3125 -1.765625 0.75q-0.984375 0.4375 -2.125 1.140625q-1.0625 0.671875 -2.09375 1.625q-1.015625 0.9375 -1.828125 2.234375q-0.8125 1.296875 -1.3125 2.9375q-0.484375 1.640625 -0.484375 3.640625q0 3.109375 1.21875 5.0q1.21875 1.890625 3.90625 1.890625zm24.655457 -64.546875l9.953125 0l0 71.640625l-9.953125 0l0 -71.640625zm20.440369 17.40625l9.953125 0l0 40.765625q0 3.578125 1.109375 4.984375q1.109375 1.390625 3.234375 1.390625q1.484375 0 2.90625 -0.828125q1.421875 -0.828125 2.5625 -2.359375l0 -43.953125l9.96875 0l0 54.234375l-7.609375 0l-0.984375 -5.796875l-0.03125 0q-1.1875 1.859375 -2.515625 3.109375q-1.3125 1.234375 -2.75 1.96875q-1.4375 0.71875 -2.9375 1.03125q-1.484375 0.3125 -2.984375 0.3125q-4.765625 0 -7.34375 -3.296875q-2.578125 -3.3125 -2.578125 -10.015625l0 -41.546875zm53.194397 54.828125q-3.5 0 -6.203125 -1.296875q-2.6875 -1.3125 -4.546875 -4.0625q-1.84375 -2.75 -2.796875 -7.0625q-0.9375 -4.3125 -0.9375 -10.390625l0 -10.234375q0 -5.15625 0.765625 -8.828125q0.765625 -3.6875 2.0 -6.1875q1.25 -2.515625 2.875 -3.96875q1.640625 -1.453125 3.375 -2.21875q1.734375 -0.765625 3.4375 -0.984375q1.71875 -0.21875 3.1875 -0.21875q2.671875 0 5.15625 0.8125q2.484375 0.796875 4.375 2.75q1.890625 1.953125 3.0 5.21875q1.125 3.265625 1.125 8.15625q0 1.65625 -0.09375 3.34375q-0.09375 1.6875 -0.265625 3.328125q-0.15625 1.640625 -0.40625 3.171875q-0.25 1.53125 -0.53125 2.828125l-18.0 0l0 5.515625q0 3.546875 0.265625 5.96875q0.28125 2.421875 0.9375 3.90625q0.65625 1.46875 1.765625 2.125q1.125 0.640625 2.828125 0.640625q0.90625 0 1.765625 -0.375q0.875 -0.375 1.515625 -1.234375q0.65625 -0.859375 1.046875 -2.296875q0.390625 -1.4375 0.390625 -3.578125l0 -1.6875l8.3125 0l0 2.09375q0 7.71875 -3.6875 11.25q-3.671875 3.515625 -10.65625 3.515625zm5.515625 -32.53125q0.046875 -0.4375 0.078125 -1.15625q0.046875 -0.734375 0.0625 -1.515625q0.015625 -0.796875 0.015625 -1.5625q0 -0.765625 0 -1.328125q0 -5.34375 -1.265625 -7.703125q-1.25 -2.375 -3.734375 -2.375q-1.296875 0 -2.28125 0.609375q-0.984375 0.609375 -1.625 2.046875q-0.625 1.4375 -0.9375 3.8125q-0.3125 2.359375 -0.3125 5.859375l0 3.3125l10.0 0zm33.013916 18.3125q0 -2.171875 0.25 -4.0q0.25 -1.828125 0.765625 -3.953125l7.921875 0l0 3.265625q0 2.71875 0.328125 4.8125q0.34375 2.078125 1.109375 3.515625q0.76556396 1.4375 2.046814 2.171875q1.28125 0.71875 3.125 0.71875q2.921875 0 4.453125 -1.59375q1.53125 -1.59375 1.53125 -4.65625q0 -1.578125 -0.21875 -2.890625q-0.203125 -1.328125 -0.734375 -2.625q-0.53125 -1.3125 -1.4375 -2.734375q-0.90625 -1.4375 -2.328125 -3.21875l-10.640564 -12.640625q-2.828125 -3.625 -4.375 -7.296875q-1.53125 -3.6875 -1.53125 -7.859375q0 -3.359375 1.046875 -6.15625q1.046875 -2.796875 3.015625 -4.8125q1.96875 -2.03125 4.859375 -3.15625q2.890564 -1.125 6.562439 -1.125q4.453125 0 7.421875 1.265625q2.96875 1.25 4.734375 3.3125q1.78125 2.046875 2.5 4.59375q0.734375 2.53125 0.734375 5.09375q0 2.15625 -0.328125 4.0q-0.328125 1.828125 -0.765625 4.03125l-7.875 0l0 -3.1875q0 -5.359375 -1.546875 -8.21875q-1.53125 -2.859375 -5.0 -2.859375q-2.875 0 -4.296875 1.609375q-1.406189 1.59375 -1.406189 4.265625q0 1.421875 0.21875 2.5625q0.21875 1.140625 0.625 2.109375q0.40618896 0.953125 0.99993896 1.859375q0.59375 0.90625 1.34375 1.890625l11.859375 14.34375q3.21875 4.203125 4.953125 8.09375q1.734375 3.875 1.734375 8.203125q0 3.59375 -1.125 6.46875q-1.125 2.875 -3.21875 4.890625q-2.078125 2.0 -5.03125 3.078125q-2.953125 1.078125 -6.65625 1.078125q-4.562439 0 -7.578064 -1.21875q-3.015625 -1.21875 -4.8125 -3.21875q-1.78125 -2.015625 -2.515625 -4.578125q-0.71875 -2.5625 -0.71875 -5.234375zm40.7594 -33.515625l-4.21875 0l0 -7.09375l5.078125 0l2.015625 -14.0625l7.078125 0l0 14.0625l8.671875 0l0 7.09375l-8.671875 0l0 34.5q0 1.765625 0.328125 2.859375q0.34375 1.078125 0.9375 1.6875q0.59375 0.609375 1.375 0.8125q0.796875 0.1875 1.65625 0.1875q1.453125 0 2.578125 -0.34375q1.125 -0.359375 2.15625 -0.984375l0 5.5q-0.875 1.078125 -1.875 1.75q-1.0 0.65625 -2.0625 1.078125q-1.0625 0.40625 -2.171875 0.5625q-1.109375 0.15625 -2.171875 0.15625q-2.078125 0 -4.015625 -0.546875q-1.921875 -0.546875 -3.421875 -2.09375q-1.5 -1.5625 -2.390625 -4.3125q-0.875 -2.765625 -0.875 -7.1875l0 -33.625zm25.442871 -7.09375l7.28125 0l0.859375 5.515625q1.65625 -3.0625 3.796875 -4.59375q2.15625 -1.546875 4.40625 -1.546875q4.28125 0 6.328125 2.640625q2.0625 2.640625 2.0625 7.90625q0 0.671875 -0.109375 1.609375q-0.09375 0.921875 -0.28125 1.921875q-0.171875 1.0 -0.4375 2.015625q-0.25 1.0 -0.515625 1.828125l-6.9375 0l0 -5.046875q0 -1.65625 -0.21875 -2.71875q-0.203125 -1.0625 -0.5625 -1.703125q-0.359375 -0.65625 -0.828125 -0.90625q-0.46875 -0.265625 -1.03125 -0.265625q-1.171875 0 -2.1875 0.78125q-1.0 0.765625 -1.671875 2.140625l0 44.65625l-9.953125 0l0 -54.234375zm44.096252 54.828125q-3.5 0 -6.203125 -1.296875q-2.6875 -1.3125 -4.546875 -4.0625q-1.84375 -2.75 -2.796875 -7.0625q-0.9375 -4.3125 -0.9375 -10.390625l0 -10.234375q0 -5.15625 0.765625 -8.828125q0.765625 -3.6875 2.0 -6.1875q1.25 -2.515625 2.875 -3.96875q1.640625 -1.453125 3.375 -2.21875q1.734375 -0.765625 3.4375 -0.984375q1.71875 -0.21875 3.1875 -0.21875q2.671875 0 5.15625 0.8125q2.484375 0.796875 4.375 2.75q1.890625 1.953125 3.0 5.21875q1.125 3.265625 1.125 8.15625q0 1.65625 -0.09375 3.34375q-0.09375 1.6875 -0.265625 3.328125q-0.15625 1.640625 -0.40625 3.171875q-0.25 1.53125 -0.53125 2.828125l-18.0 0l0 5.515625q0 3.546875 0.265625 5.96875q0.28125 2.421875 0.9375 3.90625q0.65625 1.46875 1.765625 2.125q1.125 0.640625 2.828125 0.640625q0.90625 0 1.765625 -0.375q0.875 -0.375 1.515625 -1.234375q0.65625 -0.859375 1.046875 -2.296875q0.390625 -1.4375 0.390625 -3.578125l0 -1.6875l8.3125 0l0 2.09375q0 7.71875 -3.6875 11.25q-3.671875 3.515625 -10.65625 3.515625zm5.515625 -32.53125q0.046875 -0.4375 0.078125 -1.15625q0.046875 -0.734375 0.0625 -1.515625q0.015625 -0.796875 0.015625 -1.5625q0 -0.765625 0 -1.328125q0 -5.34375 -1.265625 -7.703125q-1.25 -2.375 -3.734375 -2.375q-1.296875 0 -2.28125 0.609375q-0.984375 0.609375 -1.625 2.046875q-0.625 1.4375 -0.9375 3.8125q-0.3125 2.359375 -0.3125 5.859375l0 3.3125l10.0 0zm25.217346 32.53125q-2.53125 0 -4.484375 -1.0q-1.9375 -1.015625 -3.28125 -2.75q-1.34375 -1.734375 -2.03125 -4.109375q-0.6875 -2.390625 -0.6875 -5.171875q0 -3.359375 0.828125 -5.953125q0.828125 -2.59375 2.421875 -4.6875q1.59375 -2.09375 3.953125 -3.796875q2.375 -1.71875 5.484375 -3.25q1.484375 -0.75 3.359375 -1.515625q1.875 -0.765625 3.328125 -1.328125l0 -7.15625q0 -1.578125 -0.125 -2.9375q-0.109375 -1.359375 -0.5625 -2.359375q-0.453125 -1.015625 -1.359375 -1.578125q-0.90625 -0.578125 -2.484375 -0.578125q-1.0625 0 -2.0625 0.40625q-1.0 0.390625 -1.78125 1.34375q-0.765625 0.9375 -1.21875 2.515625q-0.453125 1.5625 -0.453125 3.890625l0 2.359375l-7.59375 0q-0.359375 -1.53125 -0.53125 -2.8125q-0.171875 -1.28125 -0.171875 -2.546875q0 -3.03125 1.03125 -5.34375q1.046875 -2.328125 2.921875 -3.90625q1.875 -1.578125 4.46875 -2.375q2.59375 -0.8125 5.71875 -0.8125q4.046875 0 6.71875 0.890625q2.6875 0.875 4.28125 2.65625q1.59375 1.765625 2.234375 4.453125q0.65625 2.671875 0.65625 6.25l0 40.609375l-7.40625 0l-0.703125 -4.640625q-1.609375 2.3125 -4.3125 3.78125q-2.703125 1.453125 -6.15625 1.453125zm4.40625 -7.6875q1.265625 0 2.453125 -0.640625q1.203125 -0.65625 2.03125 -1.59375l0 -16.984375q-0.78125 0.3125 -1.765625 0.75q-0.984375 0.4375 -2.125 1.140625q-1.0625 0.671875 -2.09375 1.625q-1.015625 0.9375 -1.828125 2.234375q-0.8125 1.296875 -1.3125 2.9375q-0.484375 1.640625 -0.484375 3.640625q0 3.109375 1.21875 5.0q1.21875 1.890625 3.90625 1.890625zm24.499207 -47.140625l7.71875 0l0.859375 5.796875l0 0.03125q1.1875 -1.84375 2.515625 -3.078125q1.34375 -1.25 2.78125 -2.0q1.4375 -0.75 2.953125 -1.0625q1.515625 -0.3125 3.015625 -0.3125q3.1875 0 5.390625 1.546875q2.203125 1.53125 3.359375 4.59375q1.171875 -1.765625 2.484375 -2.953125q1.328125 -1.1875 2.75 -1.890625q1.421875 -0.703125 2.875 -1.0q1.453125 -0.296875 2.953125 -0.296875q4.71875 0 7.296875 3.328125q2.578125 3.328125 2.578125 9.984375l0 41.546875l-9.953125 0l0 -41.1875q0 -1.78125 -0.28125 -3.0q-0.28125 -1.21875 -0.828125 -1.96875q-0.546875 -0.75 -1.421875 -1.078125q-0.859375 -0.34375 -2.078125 -0.34375q-1.375 0 -2.765625 1.015625q-1.375 1.0 -2.515625 2.765625q0.046875 0.359375 0.046875 0.71875q0 0.34375 0 0.703125l0 42.375l-9.96875 0l0 -41.1875q0 -1.78125 -0.28125 -3.0q-0.265625 -1.21875 -0.828125 -1.96875q-0.546875 -0.75 -1.421875 -1.078125q-0.859375 -0.34375 -2.078125 -0.34375q-1.34375 0 -2.71875 0.984375q-1.375 0.984375 -2.484375 2.71875l0 43.875l-9.953125 0l0 -54.234375zm92.236755 54.828125q-1.578125 0 -3.421875 -0.265625q-1.828125 -0.25 -3.65625 -1.078125q-1.828125 -0.828125 -3.5 -2.34375q-1.671875 -1.515625 -2.953125 -3.984375q-1.28125 -2.484375 -2.046875 -6.125q-0.765625 -3.65625 -0.765625 -8.6875l0 -23.828125q0 -5.078125 0.78125 -8.6875q0.78125 -3.609375 2.078125 -6.0625q1.3125 -2.46875 3.0 -3.921875q1.6875 -1.453125 3.5 -2.21875q1.8125 -0.78125 3.609375 -1.015625q1.796875 -0.234375 3.328125 -0.234375q4.015625 0 6.703125 1.125q2.703125 1.125 4.34375 3.078125q1.640625 1.9375 2.328125 4.546875q0.6875 2.59375 0.6875 5.515625q0 2.15625 -0.21875 4.0q-0.21875 1.828125 -0.65625 4.03125l-8.265625 0l0 -3.4375q0 -5.546875 -1.21875 -8.296875q-1.21875 -2.765625 -3.578125 -2.765625q-1.421875 0 -2.484375 0.5625q-1.0625 0.546875 -1.78125 1.875q-0.703125 1.3125 -1.078125 3.484375q-0.375 2.15625 -0.375 5.390625l0 30.71875q0 3.140625 0.296875 5.234375q0.296875 2.078125 0.96875 3.34375q0.671875 1.265625 1.75 1.796875q1.078125 0.53125 2.625 0.53125q0.984375 0 1.875 -0.453125q0.90625 -0.453125 1.59375 -1.421875q0.703125 -0.96875 1.109375 -2.4375q0.421875 -1.484375 0.421875 -3.484375l0 -6.578125l9.328125 0l0 6.21875q0 8.109375 -3.703125 11.96875q-3.703125 3.859375 -10.625 3.90625zm35.393677 0q-1.734375 0 -3.53125 -0.28125q-1.78125 -0.265625 -3.453125 -1.125q-1.671875 -0.875 -3.15625 -2.484375q-1.46875 -1.625 -2.578125 -4.265625q-1.09375 -2.640625 -1.734375 -6.5q-0.625 -3.859375 -0.625 -9.21875l0 -8.5q0 -5.28125 0.640625 -9.03125q0.65625 -3.765625 1.78125 -6.328125q1.125 -2.5625 2.609375 -4.078125q1.5 -1.515625 3.171875 -2.3125q1.6875 -0.8125 3.453125 -1.0625q1.765625 -0.265625 3.46875 -0.265625q1.609375 0 3.34375 0.234375q1.734375 0.234375 3.390625 1.0q1.65625 0.765625 3.125 2.296875q1.484375 1.515625 2.59375 4.078125q1.125 2.546875 1.78125 6.359375q0.65625 3.796875 0.65625 9.109375l0 8.5q0 5.28125 -0.671875 9.109375q-0.671875 3.8125 -1.8125 6.453125q-1.140625 2.640625 -2.640625 4.28125q-1.5 1.625 -3.15625 2.53125q-1.65625 0.90625 -3.375 1.203125q-1.703125 0.296875 -3.28125 0.296875zm0.078125 -7.6875q1.34375 0 2.265625 -0.6875q0.921875 -0.6875 1.5 -2.265625q0.578125 -1.578125 0.828125 -4.15625q0.25 -2.578125 0.25 -6.390625l0 -13.359375q0 -3.8125 -0.25 -6.40625q-0.25 -2.609375 -0.828125 -4.203125q-0.578125 -1.59375 -1.5 -2.296875q-0.921875 -0.71875 -2.265625 -0.71875q-1.40625 0 -2.375 0.71875q-0.96875 0.703125 -1.609375 2.296875q-0.625 1.59375 -0.90625 4.203125q-0.265625 2.59375 -0.265625 6.40625l0 13.359375q0 3.8125 0.265625 6.390625q0.28125 2.578125 0.90625 4.15625q0.640625 1.578125 1.609375 2.265625q0.96875 0.6875 2.375 0.6875zm23.679382 -47.140625l7.671875 0l0.90625 5.796875l0 0.03125q1.1875 -1.84375 2.546875 -3.078125q1.359375 -1.25 2.8125 -2.0q1.453125 -0.75 2.96875 -1.0625q1.515625 -0.3125 3.015625 -0.3125q4.765625 0 7.34375 3.328125q2.578125 3.328125 2.578125 9.984375l0 41.546875l-9.953125 0l0 -41.1875q0 -3.59375 -1.109375 -4.984375q-1.109375 -1.40625 -3.234375 -1.40625q-1.5 0 -2.984375 0.984375q-1.46875 0.984375 -2.609375 2.71875l0 43.875l-9.953125 0l0 -54.234375zm38.045654 42.890625q0 -1.765625 0.328125 -3.421875q0.328125 -1.65625 0.65625 -2.640625l7.0 0q0 2.953125 0.296875 4.953125q0.296875 1.984375 0.96875 3.171875q0.671875 1.171875 1.78125 1.6875q1.125 0.5 2.75 0.5q2.234375 0 3.25 -1.25q1.03125 -1.265625 1.03125 -2.921875q0 -0.859375 -0.234375 -1.640625q-0.234375 -0.796875 -0.671875 -1.59375q-0.421875 -0.8125 -1.0625 -1.640625q-0.625 -0.828125 -1.40625 -1.8125l-7.296875 -8.59375q-1.40625 -1.765625 -2.734375 -3.59375q-1.3125 -1.84375 -2.328125 -3.78125q-1.0 -1.953125 -1.609375 -4.078125q-0.609375 -2.125 -0.609375 -4.5q0 -3.140625 1.078125 -5.46875q1.09375 -2.328125 2.921875 -3.859375q1.828125 -1.53125 4.234375 -2.28125q2.40625 -0.75 5.078125 -0.75q2.953125 0 5.3125 0.71875q2.375 0.703125 4.0625 2.125q1.6875 1.40625 2.59375 3.515625q0.90625 2.109375 0.90625 4.90625q0 1.890625 -0.34375 3.671875q-0.328125 1.765625 -0.640625 3.015625l-6.890625 0q-0.03125 -2.671875 -0.234375 -4.671875q-0.203125 -2.015625 -0.734375 -3.328125q-0.53125 -1.328125 -1.453125 -2.0q-0.921875 -0.671875 -2.421875 -0.671875q-1.296875 0 -2.171875 0.421875q-0.859375 0.40625 -1.390625 1.078125q-0.53125 0.671875 -0.75 1.5q-0.21875 0.828125 -0.21875 1.6875q0 1.890625 0.90625 3.515625q0.90625 1.609375 2.40625 3.5l7.953125 9.328125q0.875 1.0625 2.015625 2.578125q1.140625 1.515625 2.15625 3.359375q1.03125 1.828125 1.734375 4.0q0.71875 2.15625 0.71875 4.515625q0 2.875 -0.90625 5.21875q-0.90625 2.34375 -2.6875 4.0q-1.765625 1.65625 -4.34375 2.5625q-2.578125 0.90625 -5.890625 0.90625q-2.71875 0 -5.125 -0.609375q-2.40625 -0.609375 -4.171875 -2.0q-1.765625 -1.40625 -2.796875 -3.6875q-1.015625 -2.296875 -1.015625 -5.640625zm34.851562 -42.890625l9.953186 0l0 40.765625q0 3.578125 1.109375 4.984375q1.109375 1.390625 3.234375 1.390625q1.484375 0 2.90625 -0.828125q1.421875 -0.828125 2.5625 -2.359375l0 -43.953125l9.96875 0l0 54.234375l-7.609375 0l-0.984375 -5.796875l-0.03125 0q-1.1875 1.859375 -2.515625 3.109375q-1.3125 1.234375 -2.75 1.96875q-1.4375 0.71875 -2.9375 1.03125q-1.484375 0.3125 -2.984375 0.3125q-4.765625 0 -7.343811 -3.296875q-2.578125 -3.3125 -2.578125 -10.015625l0 -41.546875zm40.288147 -17.40625l9.953125 0l0 71.640625l-9.953125 0l0 -71.640625zm21.502808 24.5l-4.21875 0l0 -7.09375l5.078125 0l2.015625 -14.0625l7.078125 0l0 14.0625l8.671875 0l0 7.09375l-8.671875 0l0 34.5q0 1.765625 0.328125 2.859375q0.34375 1.078125 0.9375 1.6875q0.59375 0.609375 1.375 0.8125q0.796875 0.1875 1.65625 0.1875q1.453125 0 2.578125 -0.34375q1.125 -0.359375 2.15625 -0.984375l0 5.5q-0.875 1.078125 -1.875 1.75q-1.0 0.65625 -2.0625 1.078125q-1.0625 0.40625 -2.171875 0.5625q-1.109375 0.15625 -2.171875 0.15625q-2.078125 0 -4.015625 -0.546875q-1.921875 -0.546875 -3.421875 -2.09375q-1.5 -1.5625 -2.390625 -4.3125q-0.875 -2.765625 -0.875 -7.1875l0 -33.625zm30.755371 -14.84375q-2.765625 0 -4.359375 -1.65625q-1.59375 -1.65625 -1.59375 -4.84375q0 -1.78125 0.40625 -2.96875q0.421875 -1.203125 1.1875 -1.9375q0.78125 -0.734375 1.875 -1.0625q1.109375 -0.328125 2.515625 -0.328125q2.953125 0 4.484375 1.5q1.546875 1.484375 1.546875 4.796875q0 3.0625 -1.5625 4.78125q-1.546875 1.71875 -4.5 1.71875zm-5.15625 7.75l9.953125 0l0 54.234375l-9.953125 0l0 -54.234375zm20.362305 0l7.671875 0l0.90625 5.796875l0 0.03125q1.1875 -1.84375 2.546875 -3.078125q1.359375 -1.25 2.8125 -2.0q1.453125 -0.75 2.96875 -1.0625q1.515625 -0.3125 3.015625 -0.3125q4.765625 0 7.34375 3.328125q2.578125 3.328125 2.578125 9.984375l0 41.546875l-9.953125 0l0 -41.1875q0 -3.59375 -1.109375 -4.984375q-1.109375 -1.40625 -3.234375 -1.40625q-1.5 0 -2.984375 0.984375q-1.46875 0.984375 -2.609375 2.71875l0 43.875l-9.953125 0l0 -54.234375zm48.279907 57.9375q0 3.5 1.296875 4.953125q1.296875 1.46875 4.015625 1.46875q1.109375 0 2.125 -0.34375q1.03125 -0.328125 1.796875 -1.21875q0.765625 -0.890625 1.234375 -2.46875q0.484375 -1.5625 0.484375 -4.046875l0 -8.546875q-1.34375 1.734375 -3.453125 2.984375q-2.109375 1.234375 -5.21875 1.234375q-0.90625 0 -2.125 -0.171875q-1.21875 -0.1875 -2.53125 -0.8125q-1.296875 -0.640625 -2.5625 -1.90625q-1.25 -1.28125 -2.234375 -3.453125q-0.984375 -2.171875 -1.59375 -5.421875q-0.609375 -3.25 -0.609375 -7.84375l0 -14.265625q0 -4.40625 0.609375 -7.5q0.609375 -3.09375 1.59375 -5.171875q0.984375 -2.09375 2.265625 -3.265625q1.28125 -1.1875 2.59375 -1.796875q1.328125 -0.609375 2.578125 -0.765625q1.265625 -0.171875 2.25 -0.171875q1.96875 0 3.484375 0.515625q1.515625 0.515625 2.640625 1.359375q1.125 0.84375 1.90625 1.90625q0.796875 1.0625 1.34375 2.140625l0.90625 -5.359375l7.765625 0l0 52.0625q0 4.53125 -0.875 8.171875q-0.859375 3.640625 -2.71875 6.21875q-1.84375 2.578125 -4.703125 3.953125q-2.859375 1.390625 -6.828125 1.390625q-2.6875 0 -5.046875 -0.484375q-2.359375 -0.46875 -4.140625 -1.671875q-1.765625 -1.203125 -2.796875 -3.265625q-1.015625 -2.0625 -1.015625 -5.25q0 -0.5625 0.109375 -1.390625q0.125 -0.828125 0.40625 -1.765625l7.046875 0zm5.671875 -13.703125q0.984375 0 1.75 -0.328125q0.765625 -0.34375 1.375 -0.890625q0.609375 -0.5625 1.0625 -1.265625q0.453125 -0.703125 0.765625 -1.453125l0 -29.65625q-0.734375 -1.65625 -1.984375 -2.8125q-1.234375 -1.171875 -3.015625 -1.171875q-1.09375 0 -2.0 0.40625q-0.90625 0.390625 -1.578125 1.46875q-0.671875 1.078125 -1.046875 3.0q-0.375 1.90625 -0.375 4.9375l0 17.84375q0 3.03125 0.375 4.96875q0.375 1.921875 1.046875 3.03125q0.671875 1.09375 1.59375 1.515625q0.921875 0.40625 2.03125 0.40625z" fill-rule="nonzero"/></g></svg>